<svg width="35" height="19" viewBox="0 0 35 19" fill="none" xmlns="http://www.w3.org/2000/svg">
<path d="M2.5 11.375C3.53125 11.375 4.375 10.5312 4.375 9.5C4.375 8.46875 3.53125 7.625 2.5 7.625C1.46875 7.625 0.625 8.46875 0.625 9.5C0.625 10.5312 1.46875 11.375 2.5 11.375ZM2.5 18.875C3.53125 18.875 4.375 18.0312 4.375 17C4.375 15.9688 3.53125 15.125 2.5 15.125C1.46875 15.125 0.625 15.9688 0.625 17C0.625 18.0312 1.46875 18.875 2.5 18.875ZM2.5 3.875C3.53125 3.875 4.375 3.03125 4.375 2C4.375 0.96875 3.53125 0.125 2.5 0.125C1.46875 0.125 0.625 0.96875 0.625 2C0.625 3.03125 1.46875 3.875 2.5 3.875ZM10 11.375H32.5C33.5312 11.375 34.375 10.5312 34.375 9.5C34.375 8.46875 33.5312 7.625 32.5 7.625H10C8.96875 7.625 8.125 8.46875 8.125 9.5C8.125 10.5312 8.96875 11.375 10 11.375ZM10 18.875H32.5C33.5312 18.875 34.375 18.0312 34.375 17C34.375 15.9688 33.5312 15.125 32.5 15.125H10C8.96875 15.125 8.125 15.9688 8.125 17C8.125 18.0312 8.96875 18.875 10 18.875ZM8.125 2C8.125 3.03125 8.96875 3.875 10 3.875H32.5C33.5312 3.875 34.375 3.03125 34.375 2C34.375 0.96875 33.5312 0.125 32.5 0.125H10C8.96875 0.125 8.125 0.96875 8.125 2ZM2.5 11.375C3.53125 11.375 4.375 10.5312 4.375 9.5C4.375 8.46875 3.53125 7.625 2.5 7.625C1.46875 7.625 0.625 8.46875 0.625 9.5C0.625 10.5312 1.46875 11.375 2.5 11.375ZM2.5 18.875C3.53125 18.875 4.375 18.0312 4.375 17C4.375 15.9688 3.53125 15.125 2.5 15.125C1.46875 15.125 0.625 15.9688 0.625 17C0.625 18.0312 1.46875 18.875 2.5 18.875ZM2.5 3.875C3.53125 3.875 4.375 3.03125 4.375 2C4.375 0.96875 3.53125 0.125 2.5 0.125C1.46875 0.125 0.625 0.96875 0.625 2C0.625 3.03125 1.46875 3.875 2.5 3.875ZM10 11.375H32.5C33.5312 11.375 34.375 10.5312 34.375 9.5C34.375 8.46875 33.5312 7.625 32.5 7.625H10C8.96875 7.625 8.125 8.46875 8.125 9.5C8.125 10.5312 8.96875 11.375 10 11.375ZM10 18.875H32.5C33.5312 18.875 34.375 18.0312 34.375 17C34.375 15.9688 33.5312 15.125 32.5 15.125H10C8.96875 15.125 8.125 15.9688 8.125 17C8.125 18.0312 8.96875 18.875 10 18.875ZM8.125 2C8.125 3.03125 8.96875 3.875 10 3.875H32.5C33.5312 3.875 34.375 3.03125 34.375 2C34.375 0.96875 33.5312 0.125 32.5 0.125H10C8.96875 0.125 8.125 0.96875 8.125 2Z" fill="black" fill-opacity="0.3"/>
</svg>
