<svg width="47" height="38" viewBox="0 0 47 38" fill="none" xmlns="http://www.w3.org/2000/svg">
<path d="M26.35 11.95C33.3724 11.95 37.3596 16.433 37.9381 21.8509H38.1148C42.6349 21.8509 46.3 25.3763 46.3 29.7254C46.3 34.0745 42.6349 37.6 38.1148 37.6H14.5852C10.0651 37.6 6.40002 34.0745 6.40002 29.7254C6.40002 25.3763 10.0651 21.8509 14.5852 21.8509H14.7619C15.3433 16.396 19.3248 11.95 26.35 11.95ZM26.35 14.8C21.6475 14.8 17.5521 18.4195 17.5521 23.4212C17.5521 24.2135 16.8282 24.8348 15.9988 24.8348H14.4313C11.5699 24.832 9.25002 27.055 9.25002 29.791C9.25002 32.527 11.5699 34.75 14.4313 34.75H38.2687C41.1301 34.75 43.45 32.527 43.45 29.791C43.45 27.055 41.1301 24.832 38.2687 24.832H36.7012C35.8719 24.8348 35.148 24.2135 35.148 23.4212C35.148 18.3568 31.0497 14.8 26.35 14.8ZM5.83857 19.645C5.94813 19.961 5.94307 20.3054 5.82428 20.618C5.70548 20.9306 5.48052 21.1915 5.18877 21.355L4.95507 21.4576L2.67222 22.2442C2.33533 22.3621 1.96646 22.3492 1.63857 22.2082C1.31069 22.0672 1.04766 21.8083 0.901501 21.4827C0.755346 21.1571 0.73671 20.7884 0.849279 20.4497C0.961848 20.111 1.19742 19.8269 1.50942 19.6535L1.74312 19.5509L4.02882 18.7643C4.38597 18.6418 4.77717 18.666 5.1165 18.8316C5.45582 18.9973 5.71552 19.2908 5.83857 19.6478M20.422 7.67499C21.3711 8.13669 22.2033 8.73804 22.9129 9.44199C21.7539 9.68139 20.6747 10.0376 19.6753 10.5107C18.3881 9.73598 16.8723 9.43118 15.3856 9.6482C13.899 9.86523 12.5336 10.5907 11.5216 11.7011C10.5096 12.8115 9.91369 14.2383 9.83521 15.7386C9.75672 17.2389 10.2005 18.72 11.0911 19.93C10.1506 20.2093 9.26712 20.6168 8.45487 21.127C7.35301 19.4106 6.84276 17.3809 7.00192 15.3475C7.16108 13.3141 7.98093 11.3885 9.33643 9.86449C10.6919 8.34044 12.5087 7.30155 14.5096 6.90624C16.5106 6.51093 18.5859 6.7809 20.4192 7.67499M3.31062 8.15949L3.55002 8.25069L5.72172 9.30804C6.04187 9.46367 6.29218 9.7335 6.42338 10.0644C6.55459 10.3953 6.55719 10.7634 6.43067 11.0961C6.30415 11.4288 6.05768 11.7022 5.73976 11.8623C5.42184 12.0224 5.05549 12.0578 4.71282 11.9614L4.47057 11.8702L2.30172 10.8128C1.98157 10.6572 1.73126 10.3874 1.60005 10.0565C1.46885 9.72556 1.46625 9.35752 1.59277 9.02479C1.71928 8.69205 1.96575 8.41872 2.28368 8.25858C2.6016 8.09844 2.96794 8.06309 3.31062 8.15949ZM23.4687 1.39074C23.7687 1.53715 24.0079 1.78426 24.1443 2.08897C24.2808 2.39368 24.3059 2.73664 24.2154 3.05799L24.1242 3.29739L23.0668 5.46909C22.9112 5.78924 22.6414 6.03955 22.3104 6.17076C21.9795 6.30196 21.6115 6.30456 21.2788 6.17804C20.946 6.05153 20.6727 5.80505 20.5126 5.48713C20.3524 5.16921 20.3171 4.80287 20.4135 4.46019L20.5047 4.21794L21.562 2.04624C21.6441 1.87759 21.7587 1.7268 21.8991 1.60252C22.0396 1.47824 22.2033 1.38291 22.3807 1.32201C22.5581 1.26111 22.7458 1.23584 22.9329 1.24763C23.1201 1.25942 23.3003 1.30806 23.4687 1.39074ZM12.67 1.29954L12.7755 1.53324L13.5621 3.81894C13.6777 4.1554 13.6633 4.52294 13.5217 4.84931C13.3801 5.17568 13.1215 5.43728 12.7968 5.58266C12.4721 5.72805 12.1047 5.74672 11.7669 5.63499C11.4292 5.52326 11.1454 5.28923 10.9714 4.97889L10.866 4.74519L10.0822 2.46234C9.9684 2.12668 9.98376 1.76064 10.1253 1.43569C10.2668 1.11074 10.5244 0.850204 10.8477 0.704934C11.171 0.559663 11.5368 0.54009 11.8738 0.650034C12.2107 0.759978 12.4946 0.991549 12.67 1.29954Z" fill="black"/>
</svg>
