<svg width="18" height="18" viewBox="0 0 18 18" fill="none" xmlns="http://www.w3.org/2000/svg">
<g clip-path="url(#clip0_83_72)">
<path d="M8.60178 1.28928C8.65403 1.2369 8.7161 1.19533 8.78444 1.16698C8.85278 1.13862 8.92604 1.12402 9.00003 1.12402C9.07401 1.12402 9.14728 1.13862 9.21561 1.16698C9.28395 1.19533 9.34603 1.2369 9.39828 1.28928L11.0858 2.97678C11.1381 3.02908 11.1796 3.09117 11.2079 3.1595C11.2362 3.22783 11.2507 3.30107 11.2507 3.37503C11.2507 3.44899 11.2362 3.52223 11.2079 3.59056C11.1796 3.65889 11.1381 3.72098 11.0858 3.77328C11.0335 3.82558 10.9714 3.86706 10.9031 3.89537C10.8347 3.92367 10.7615 3.93824 10.6875 3.93824C10.6136 3.93824 10.5403 3.92367 10.472 3.89537C10.4037 3.86706 10.3416 3.82558 10.2893 3.77328L9.56253 3.0454V5.06253C9.56253 5.21171 9.50326 5.35479 9.39777 5.46028C9.29229 5.56577 9.14921 5.62503 9.00003 5.62503C8.85084 5.62503 8.70777 5.56577 8.60228 5.46028C8.49679 5.35479 8.43753 5.21171 8.43753 5.06253V3.0454L7.71078 3.77328C7.65848 3.82558 7.59639 3.86706 7.52806 3.89537C7.45973 3.92367 7.38649 3.93824 7.31253 3.93824C7.23856 3.93824 7.16533 3.92367 7.09699 3.89537C7.02866 3.86706 6.96658 3.82558 6.91428 3.77328C6.86198 3.72098 6.82049 3.65889 6.79219 3.59056C6.76388 3.52223 6.74932 3.44899 6.74932 3.37503C6.74932 3.30107 6.76388 3.22783 6.79219 3.1595C6.82049 3.09117 6.86198 3.02908 6.91428 2.97678L8.60178 1.28928ZM2.6359 4.8859C2.74139 4.78045 2.88443 4.72121 3.03359 4.72121C3.18274 4.72121 3.32579 4.78045 3.43128 4.8859L5.02203 6.47665C5.12449 6.58274 5.18119 6.72483 5.17991 6.87232C5.17862 7.0198 5.11947 7.16088 5.01517 7.26518C4.91088 7.36947 4.7698 7.42863 4.62231 7.42991C4.47483 7.43119 4.33274 7.37449 4.22665 7.27203L2.6359 5.68128C2.53045 5.57579 2.47121 5.43275 2.47121 5.28359C2.47121 5.13444 2.53045 4.99139 2.6359 4.8859ZM15.3642 4.8859C15.4696 4.99139 15.5288 5.13444 15.5288 5.28359C15.5288 5.43275 15.4696 5.57579 15.3642 5.68128L13.7734 7.27203C13.7215 7.32575 13.6594 7.36861 13.5908 7.39809C13.5222 7.42757 13.4484 7.44308 13.3737 7.44373C13.299 7.44438 13.2249 7.43015 13.1558 7.40187C13.0867 7.37358 13.0239 7.33182 12.9711 7.279C12.9182 7.22619 12.8765 7.16338 12.8482 7.09425C12.8199 7.02512 12.8057 6.95105 12.8063 6.87637C12.807 6.80168 12.8225 6.72787 12.852 6.65924C12.8814 6.59061 12.9243 6.52854 12.978 6.47665L14.5688 4.8859C14.6743 4.78045 14.8173 4.72121 14.9665 4.72121C15.1156 4.72121 15.2587 4.78045 15.3642 4.8859ZM9.00003 7.87503C9.59255 7.87485 10.1747 8.03066 10.6879 8.3268C11.2011 8.62295 11.6273 9.04898 11.9236 9.56208C12.22 10.0752 12.376 10.6572 12.3761 11.2498C12.3761 11.8423 12.2202 12.4244 11.9239 12.9375H6.07503C5.77872 12.4243 5.62277 11.8421 5.62286 11.2495C5.62296 10.6569 5.77909 10.0747 6.07557 9.56159C6.37204 9.04846 6.7984 8.62244 7.31177 8.32638C7.82513 8.03032 8.40741 7.87465 9.00003 7.87503ZM13.1738 12.9375C13.4496 12.2545 13.5535 11.5142 13.4764 10.7816C13.3993 10.049 13.1436 9.3465 12.7316 8.73584C12.3196 8.12517 11.764 7.62498 11.1136 7.27918C10.4632 6.93338 9.73779 6.75254 9.00115 6.75254C8.26451 6.75254 7.53913 6.93338 6.8887 7.27918C6.23827 7.62498 5.68268 8.12517 5.2707 8.73584C4.85873 9.3465 4.60296 10.049 4.52587 10.7816C4.44877 11.5142 4.5527 12.2545 4.82853 12.9375H0.561401C0.412217 12.9375 0.269143 12.9968 0.163654 13.1023C0.0581646 13.2078 -0.00109863 13.3508 -0.00109863 13.5C-0.00109863 13.6492 0.0581646 13.7923 0.163654 13.8978C0.269143 14.0033 0.412217 14.0625 0.561401 14.0625H17.4364C17.5856 14.0625 17.7287 14.0033 17.8341 13.8978C17.9396 13.7923 17.9989 13.6492 17.9989 13.5C17.9989 13.3508 17.9396 13.2078 17.8341 13.1023C17.7287 12.9968 17.5856 12.9375 17.4364 12.9375H13.1727H13.1738ZM2.63673e-05 11.25C2.63673e-05 11.1008 0.0592896 10.9578 0.164779 10.8523C0.270268 10.7468 0.413342 10.6875 0.562526 10.6875H2.81253C2.96171 10.6875 3.10478 10.7468 3.21027 10.8523C3.31576 10.9578 3.37503 11.1008 3.37503 11.25C3.37503 11.3992 3.31576 11.5423 3.21027 11.6478C3.10478 11.7533 2.96171 11.8125 2.81253 11.8125H0.562526C0.413342 11.8125 0.270268 11.7533 0.164779 11.6478C0.0592896 11.5423 2.63673e-05 11.3992 2.63673e-05 11.25ZM14.625 11.25C14.625 11.1008 14.6843 10.9578 14.7898 10.8523C14.8953 10.7468 15.0383 10.6875 15.1875 10.6875H17.4375C17.5867 10.6875 17.7298 10.7468 17.8353 10.8523C17.9408 10.9578 18 11.1008 18 11.25C18 11.3992 17.9408 11.5423 17.8353 11.6478C17.7298 11.7533 17.5867 11.8125 17.4375 11.8125H15.1875C15.0383 11.8125 14.8953 11.7533 14.7898 11.6478C14.6843 11.5423 14.625 11.3992 14.625 11.25Z" fill="#C8C8C8"/>
</g>
<defs>
<clipPath id="clip0_83_72">
<rect width="18" height="18" fill="white"/>
</clipPath>
</defs>
</svg>
