<svg width="22" height="22" viewBox="0 0 22 22" fill="none" xmlns="http://www.w3.org/2000/svg">
<path d="M11 2.0625C11.1823 2.0625 11.3572 2.13493 11.4861 2.26386C11.6151 2.3928 11.6875 2.56766 11.6875 2.75V4.8125C11.6875 4.99484 11.6151 5.1697 11.4861 5.29864C11.3572 5.42757 11.1823 5.5 11 5.5C10.8177 5.5 10.6428 5.42757 10.5139 5.29864C10.3849 5.1697 10.3125 4.99484 10.3125 4.8125V2.75C10.3125 2.56766 10.3849 2.3928 10.5139 2.26386C10.6428 2.13493 10.8177 2.0625 11 2.0625ZM6.875 11C6.875 9.90598 7.3096 8.85677 8.08319 8.08319C8.85677 7.3096 9.90598 6.875 11 6.875C12.094 6.875 13.1432 7.3096 13.9168 8.08319C14.6904 8.85677 15.125 9.90598 15.125 11C15.125 12.094 14.6904 13.1432 13.9168 13.9168C13.1432 14.6904 12.094 15.125 11 15.125C9.90598 15.125 8.85677 14.6904 8.08319 13.9168C7.3096 13.1432 6.875 12.094 6.875 11ZM17.3195 5.65217C17.4409 5.52184 17.5071 5.34946 17.5039 5.17135C17.5008 4.99325 17.4286 4.82331 17.3027 4.69735C17.1767 4.57138 17.0068 4.49923 16.8286 4.49609C16.6505 4.49295 16.4782 4.55906 16.3478 4.6805L14.8894 6.138C14.8237 6.20139 14.7713 6.27723 14.7352 6.36109C14.6992 6.44495 14.6802 6.53515 14.6793 6.62644C14.6785 6.71772 14.6958 6.80826 14.7304 6.89277C14.7649 6.97727 14.8159 7.05406 14.8804 7.11864C14.945 7.18322 15.0217 7.23431 15.1062 7.26891C15.1906 7.30352 15.2812 7.32096 15.3724 7.32021C15.4637 7.31946 15.554 7.30054 15.6379 7.26455C15.7217 7.22855 15.7976 7.17622 15.8611 7.11058L17.3195 5.65217ZM19.9375 11C19.9375 11.1823 19.8651 11.3572 19.7361 11.4861C19.6072 11.6151 19.4323 11.6875 19.25 11.6875H17.1875C17.0052 11.6875 16.8303 11.6151 16.7014 11.4861C16.5724 11.3572 16.5 11.1823 16.5 11C16.5 10.8177 16.5724 10.6428 16.7014 10.5139C16.8303 10.3849 17.0052 10.3125 17.1875 10.3125H19.25C19.4323 10.3125 19.6072 10.3849 19.7361 10.5139C19.8651 10.6428 19.9375 10.8177 19.9375 11ZM16.3478 17.3195C16.4782 17.4409 16.6505 17.5071 16.8286 17.5039C17.0068 17.5008 17.1767 17.4286 17.3027 17.3027C17.4286 17.1767 17.5008 17.0068 17.5039 16.8286C17.5071 16.6505 17.4409 16.4782 17.3195 16.3478L15.862 14.8894C15.7986 14.8237 15.7228 14.7713 15.6389 14.7352C15.5551 14.6992 15.4648 14.6802 15.3736 14.6793C15.2823 14.6785 15.1917 14.6958 15.1072 14.7304C15.0227 14.7649 14.9459 14.8159 14.8814 14.8804C14.8168 14.945 14.7657 15.0217 14.7311 15.1062C14.6965 15.1906 14.679 15.2812 14.6798 15.3724C14.6805 15.4637 14.6995 15.554 14.7355 15.6379C14.7714 15.7217 14.8238 15.7976 14.8894 15.8611L16.3478 17.3195ZM11 16.5C11.1823 16.5 11.3572 16.5724 11.4861 16.7014C11.6151 16.8303 11.6875 17.0052 11.6875 17.1875V19.25C11.6875 19.4323 11.6151 19.6072 11.4861 19.7361C11.3572 19.8651 11.1823 19.9375 11 19.9375C10.8177 19.9375 10.6428 19.8651 10.5139 19.7361C10.3849 19.6072 10.3125 19.4323 10.3125 19.25V17.1875C10.3125 17.0052 10.3849 16.8303 10.5139 16.7014C10.6428 16.5724 10.8177 16.5 11 16.5ZM7.1115 15.8611C7.23667 15.7314 7.30589 15.5577 7.30424 15.3774C7.30259 15.1971 7.2302 15.0247 7.10267 14.8973C6.97515 14.7699 6.80268 14.6977 6.62242 14.6962C6.44215 14.6947 6.26852 14.7641 6.13892 14.8894L4.6805 16.3469C4.5552 16.4765 4.48582 16.6502 4.48731 16.8304C4.48879 17.0107 4.56101 17.1831 4.68842 17.3107C4.81583 17.4382 4.98823 17.5106 5.16849 17.5122C5.34875 17.5139 5.52244 17.4447 5.65217 17.3195L7.1115 15.8611ZM5.5 11C5.5 11.1823 5.42757 11.3572 5.29864 11.4861C5.1697 11.6151 4.99484 11.6875 4.8125 11.6875H2.75C2.56766 11.6875 2.3928 11.6151 2.26386 11.4861C2.13493 11.3572 2.0625 11.1823 2.0625 11C2.0625 10.8177 2.13493 10.6428 2.26386 10.5139C2.3928 10.3849 2.56766 10.3125 2.75 10.3125H4.8125C4.99484 10.3125 5.1697 10.3849 5.29864 10.5139C5.42757 10.6428 5.5 10.8177 5.5 11ZM6.13892 7.11058C6.26924 7.23202 6.44162 7.29814 6.61973 7.29499C6.79784 7.29185 6.96777 7.2197 7.09374 7.09374C7.2197 6.96777 7.29185 6.79784 7.29499 6.61973C7.29814 6.44162 7.23202 6.26924 7.11058 6.13892L5.65308 4.6805C5.52348 4.5552 5.34985 4.48582 5.16959 4.48731C4.98932 4.48879 4.81685 4.56101 4.68933 4.68842C4.5618 4.81583 4.48941 4.98823 4.48776 5.16849C4.48611 5.34875 4.55533 5.52244 4.6805 5.65217L6.13892 7.11058Z" fill="#FD8A03"/>
</svg>
