<svg width="18" height="14" viewBox="0 0 18 14" fill="none" xmlns="http://www.w3.org/2000/svg">
<path d="M8.60178 4.46075C8.65403 4.51313 8.7161 4.55469 8.78444 4.58305C8.85278 4.61141 8.92604 4.62601 9.00003 4.62601C9.07401 4.62601 9.14728 4.61141 9.21561 4.58305C9.28395 4.55469 9.34603 4.51313 9.39828 4.46075L11.0858 2.77325C11.1381 2.72095 11.1796 2.65886 11.2079 2.59053C11.2362 2.5222 11.2507 2.44896 11.2507 2.375C11.2507 2.30104 11.2362 2.2278 11.2079 2.15947C11.1796 2.09114 11.1381 2.02905 11.0858 1.97675C11.0335 1.92445 10.9714 1.88297 10.9031 1.85466C10.8347 1.82636 10.7615 1.81179 10.6875 1.81179C10.6136 1.81179 10.5403 1.82636 10.472 1.85466C10.4037 1.88297 10.3416 1.92445 10.2893 1.97675L9.56253 2.70462V0.6875C9.56253 0.538316 9.50326 0.395242 9.39777 0.289752C9.29229 0.184263 9.14921 0.125 9.00003 0.125C8.85084 0.125 8.70777 0.184263 8.60228 0.289752C8.49679 0.395242 8.43753 0.538316 8.43753 0.6875V2.70462L7.71078 1.97675C7.65848 1.92445 7.59639 1.88297 7.52806 1.85466C7.45973 1.82636 7.38649 1.81179 7.31253 1.81179C7.23856 1.81179 7.16533 1.82636 7.09699 1.85466C7.02866 1.88297 6.96658 1.92445 6.91428 1.97675C6.86198 2.02905 6.82049 2.09114 6.79219 2.15947C6.76388 2.2278 6.74932 2.30104 6.74932 2.375C6.74932 2.44896 6.76388 2.5222 6.79219 2.59053C6.82049 2.65886 6.86198 2.72095 6.91428 2.77325L8.60178 4.46075ZM2.6359 3.887C2.74139 3.78155 2.88443 3.72231 3.03359 3.72231C3.18274 3.72231 3.32579 3.78155 3.43128 3.887L5.02203 5.47662C5.12449 5.58271 5.18119 5.7248 5.17991 5.87229C5.17862 6.01977 5.11947 6.16086 5.01517 6.26515C4.91088 6.36944 4.7698 6.4286 4.62231 6.42988C4.47483 6.43116 4.33274 6.37446 4.22665 6.272L2.6359 4.68125C2.53045 4.57577 2.47121 4.43272 2.47121 4.28356C2.47121 4.13441 2.53045 3.99248 2.6359 3.887ZM15.3642 3.887C15.4693 3.99244 15.5283 4.13525 15.5283 4.28412C15.5283 4.433 15.4693 4.57581 15.3642 4.68125L13.7734 6.272C13.7215 6.32572 13.6594 6.36858 13.5908 6.39806C13.5222 6.42754 13.4484 6.44305 13.3737 6.4437C13.299 6.44435 13.2249 6.43012 13.1558 6.40184C13.0867 6.37355 13.0239 6.33179 12.9711 6.27897C12.9182 6.22616 12.8765 6.16335 12.8482 6.09422C12.8199 6.02509 12.8057 5.95103 12.8063 5.87634C12.807 5.80165 12.8225 5.72784 12.852 5.65921C12.8814 5.59058 12.9243 5.52851 12.978 5.47662L14.5688 3.88587C14.6743 3.78042 14.8173 3.72118 14.9665 3.72118C15.1156 3.72118 15.2587 3.78155 15.3642 3.887ZM9.00003 6.875C9.59255 6.87482 10.1747 7.03063 10.6879 7.32677C11.2011 7.62292 11.6273 8.04895 11.9236 8.56205C12.22 9.07514 12.376 9.65722 12.3761 10.2497C12.3761 10.8423 12.2202 11.4244 11.9239 11.9375H6.07503C5.77872 11.4243 5.62277 10.8421 5.62286 10.2495C5.62296 9.65684 5.77909 9.07469 6.07557 8.56156C6.37204 8.04843 6.7984 7.62242 7.31177 7.32635C7.82513 7.03029 8.40741 6.87462 9.00003 6.875ZM13.1738 11.9375C13.4496 11.2545 13.5535 10.5141 13.4764 9.78154C13.3993 9.04894 13.1436 8.34648 12.7316 7.73581C12.3196 7.12514 11.764 6.62495 11.1136 6.27915C10.4632 5.93335 9.73779 5.75251 9.00115 5.75251C8.26451 5.75251 7.53913 5.93335 6.8887 6.27915C6.23827 6.62495 5.68268 7.12514 5.2707 7.73581C4.85873 8.34648 4.60296 9.04894 4.52587 9.78154C4.44877 10.5141 4.5527 11.2545 4.82853 11.9375H0.561401C0.412217 11.9375 0.269143 11.9968 0.163654 12.1023C0.0581646 12.2077 -0.00109863 12.3508 -0.00109863 12.5C-0.00109863 12.6492 0.0581646 12.7923 0.163654 12.8977C0.269143 13.0032 0.412217 13.0625 0.561401 13.0625H17.4364C17.5856 13.0625 17.7287 13.0032 17.8341 12.8977C17.9396 12.7923 17.9989 12.6492 17.9989 12.5C17.9989 12.3508 17.9396 12.2077 17.8341 12.1023C17.7287 11.9968 17.5856 11.9375 17.4364 11.9375H13.1727H13.1738ZM2.63673e-05 10.25C2.63673e-05 10.1008 0.0592896 9.95774 0.164779 9.85225C0.270268 9.74676 0.413342 9.6875 0.562526 9.6875H2.81253C2.96171 9.6875 3.10478 9.74676 3.21027 9.85225C3.31576 9.95774 3.37503 10.1008 3.37503 10.25C3.37503 10.3992 3.31576 10.5423 3.21027 10.6477C3.10478 10.7532 2.96171 10.8125 2.81253 10.8125H0.562526C0.413342 10.8125 0.270268 10.7532 0.164779 10.6477C0.0592896 10.5423 2.63673e-05 10.3992 2.63673e-05 10.25ZM14.625 10.25C14.625 10.1008 14.6843 9.95774 14.7898 9.85225C14.8953 9.74676 15.0383 9.6875 15.1875 9.6875H17.4375C17.5867 9.6875 17.7298 9.74676 17.8353 9.85225C17.9408 9.95774 18 10.1008 18 10.25C18 10.3992 17.9408 10.5423 17.8353 10.6477C17.7298 10.7532 17.5867 10.8125 17.4375 10.8125H15.1875C15.0383 10.8125 14.8953 10.7532 14.7898 10.6477C14.6843 10.5423 14.625 10.3992 14.625 10.25Z" fill="#C8C8C8"/>
</svg>
